# AST/ASF file generated using VICON BodyLanguage
# -----------------------------------------------
:version 1.10
:name VICON
:units
  mass 1.0
  length 0.45
  angle deg
:documentation
   .ast/.asf automatically generated from VICON data using
   VICON BodyBuilder and BodyLanguage model FoxedUp or BRILLIANT.MOD
:root
   order TX TY TZ RX RY RZ
   axis XYZ
   position 0 0 0  
   orientation 0 0 0 
:bonedata
  begin
     id 1 
     name lhipjoint
     direction 0.621036 -0.695554 0.361275 
     length 2.46325 
     axis 0 0 0  XYZ
  end
  begin
     id 2 
     name lfemur
     direction 0.34202 -0.939693 0  
     length 6.54784  
     axis 0 0 20  XYZ
    dof rx ry rz
    limits (-160.0 20.0)
           (-70.0 70.0)
           (-60.0 70.0)
  end
  begin
     id 3 
     name ltibia
     direction 0.34202 -0.939693 0   
     length 7.84737   
     axis 0 0 20   XYZ
    dof rx
    limits (-10.0 170.0)
  end
  begin
     id 4 
     name lfoot
     direction 0.0790693 -0.217241 0.97291   
     length 2.59747   
     axis -90 7.62852e-016 20   XYZ
    dof rx rz
    limits (-45.0 90.0)
           (-70.0 20.0)
  end
  begin
     id 5 
     name ltoes
     direction 1.53572e-011 -4.21898e-011 1   
     length 1.29919   
     axis -90 7.62852e-016 20   XYZ
    dof rx
    limits (-90.0 20.0)
  end
  begin
     id 6 
     name rhipjoint
     direction -0.602353 -0.708375 0.367935   
     length 2.41867  
     axis 0 0 0  XYZ 
  end
  begin
     id 7 
     name rfemur
     direction -0.34202 -0.939693 0   
     length 6.92065   
     axis 0 0 -20   XYZ
    dof rx ry rz
    limits (-160.0 20.0)
           (-70.0 70.0)
           (-70.0 60.0)
  end
  begin
     id 8 
     name rtibia
     direction -0.34202 -0.939693 0   
     length 7.88883   
     axis 0 0 -20   XYZ
    dof rx
    limits (-10.0 170.0)
 end
 begin
     id 9 
     name rfoot
     direction -0.0768692 -0.211196 0.974416   
     length 2.43714  
     axis -90 -7.62852e-016 -20   XYZ
    dof rx rz
    limits (-45.0 90.0)
           (-20.0 70.0)
  end
  begin
     id 10 
     name rtoes
     direction -1.53575e-011 -4.21933e-011 1   
     length 1.22113   
     axis -90 -7.62852e-016 -20   XYZ
    dof rx
    limits (-90.0 20.0)
  end
  begin
     id 11 
     name lowerback
     direction 0.0197937 0.98943 -0.143655   
     length 2.16931   
     axis 0 0 0   XYZ
    dof rx ry rz
    limits (-20.0 45.0)
           (-30.0 30.0)
           (-30.0 30.0)
  end
  begin
     id 12 
     name upperback
     direction -0.00183968 0.999975 0.00684288   
     length 2.17221   
     axis 0 0 0   XYZ
    dof rx ry rz
    limits (-20.0 45.0)
           (-30.0 30.0)
           (-30.0 30.0)
  end
  begin
     id 13 
     name thorax
     direction -0.00950244 0.997208 0.0740685   
     length 2.22549   
     axis 0 0 0   XYZ
    dof rx ry rz
    limits (-20.0 45.0)
           (-30.0 30.0)
           (-30.0 30.0)
  end
  begin
     id 14 
     name lowerneck
     direction 0.0218238 0.996215 0.0841425   
     length 1.77269   
     axis 0 0 0   XYZ
    dof rx ry rz
    limits (-20.0 45.0)
           (-30.0 30.0)
           (-30.0 30.0)
  end
  begin
     id 15 
     name upperneck
     direction -0.00430652 0.994214 -0.107332   
     length 1.76534   
     axis 0 0 0   XYZ
    dof rx ry rz
    limits (-20.0 45.0)
           (-30.0 30.0)
           (-30.0 30.0)
  end
  begin
     id 16
     name head
     direction -0.00328946 0.998959 -0.0454998  
     length 1.82634  
     axis 0 0 0   XYZ
    dof rx ry rz
    limits (-20.0 45.0)
           (-30.0 30.0)
           (-30.0 30.0)
  end
  begin
     id 17 
     name lclavicle
     direction 0.970962 0.239191 0.00450212  
     length 3.84872  
     axis 0 0 0   XYZ
    dof ry rz
    limits (-20.0 10.0)
           (0.0 20.0)
  end
  begin
     id 18 
     name lhumerus
     direction 1 -4.48966e-011 5.74696e-028   
     length 5.22771   
     axis 180 -30 -90   XYZ
    dof rx ry rz
    limits (-60.0 90.0)
           (-90.0 90.0)
           (-90.0 90.0)
  end
  begin
     id 19
     name lradius
     direction 1 -4.4896e-011 4.25109e-027   
     length 3.45251   
     axis 180 -30 -90   XYZ
    dof rx
    limits (-10.0 170.0)
  end
  begin
     id 20
     name lwrist
     direction 1 -4.48971e-011 1.15382e-027   
     length 1.72626   
     axis -5.52449e-016 90 90   XYZ
    dof ry
    limits (-180.0 0.0)
 end
  begin
     id 21 
     name lhand
     direction 1 -4.49034e-011 2.30765e-027   
     length 0.552119   
     axis -1.47248e-015 90 90   XYZ
    dof rx rz
    limits (-90.0 90.0)
           (-45.0 45.0)
  end
  begin
     id 22 
     name lfingers
     direction 1 -4.48951e-011 4.61529e-027   
     length 0.445133   
     axis -2.94495e-015 90 90   XYZ
    dof rx
    limits (0.0 90.0)
  end
  begin
     id 23
     name lthumb
     direction 0.707107 -6.34991e-011 0.707107   
     length 0.639124   
     axis -90 45 2.85299e-015   XYZ
    dof rx rz
    limits (-45.0 45.0)
           (-45.0 45.0)
  end
  begin
     id 24 
     name rclavicle
     direction -0.97424 0.222511 -0.0366699   
     length 3.73439  
     axis 0 0 0   XYZ 
    dof ry rz
    limits (-10.0 20.0)
           (-20.0 0.0)
  end
  begin
     id 25 
     name rhumerus
     direction -1 -4.48956e-011 -4.97258e-028  
     length 5.2398   
     axis 180 30 90   XYZ
    dof rx ry rz
    limits (-90.0 60.0)
           (-90.0 90.0)
           (-90.0 90.0)
  end
  begin
     id 26 
     name rradius
     direction -1 -4.4897e-011 -1.72611e-027   
     length 3.48042   
     axis 180 30 90   XYZ
    dof rx
    limits (-10.0 170.0)
  end
  begin
     id 27 
     name rwrist
     direction -1 -4.48976e-011 1.15382e-027   
     length 1.74021   
     axis -5.52449e-016 -90 -90   XYZ
    dof ry
    limits (-180.0 0.0)
  end
  begin
     id 28
     name rhand
     direction -1 -4.48963e-011 2.30765e-027   
     length 0.618713   
     axis -1.47248e-015 -90 -90   XYZ
    dof rx rz
    limits (-90.0 90.0)
           (-45.0 45.0)
  end
  begin
     id 29
     name rfingers
     direction -1 -4.4888e-011 4.61529e-027   
     length 0.498823   
     axis -2.94495e-015 -90 -90   XYZ
    dof rx
    limits (0.0 90.0)
  end
  begin
     id 30
     name rthumb
     direction -0.707107 -6.34968e-011 0.707107   
     length 0.716213   
     axis -90 -45 -2.85299e-015   XYZ
    dof rx rz
    limits (-45.0 45.0)
           (-45.0 45.0)
  end
:hierarchy
  begin
    root lhipjoint rhipjoint lowerback
    lhipjoint lfemur
    lfemur ltibia
    ltibia lfoot
    lfoot ltoes
    rhipjoint rfemur
    rfemur rtibia
    rtibia rfoot
    rfoot rtoes
    lowerback upperback
    upperback thorax
    thorax lowerneck lclavicle rclavicle
    lowerneck upperneck
    upperneck head
    lclavicle lhumerus
    lhumerus lradius
    lradius lwrist
    lwrist lhand lthumb
    lhand lfingers
    rclavicle rhumerus
    rhumerus rradius
    rradius rwrist
    rwrist rhand rthumb
    rhand rfingers
  end

#!OML:ASF G:\JayActor3\Patient Classification 1\Patient 1\Session 5\male.ASF
:FULLY-SPECIFIED
:DEGREES
256
root 50.0489 17.4965 -5.11071 138.667 -88.6277 -115.792
lowerback 14.5752 -1.10971 3.52479
upperback 4.13545 -1.14157 -0.136754
thorax -3.85713 -0.652333 -1.92974
lowerneck 4.44699 0.519174 2.52088
upperneck -18.1724 0.651376 0.00902373
head -6.22745 -0.0102511 -0.443993
rclavicle 6.65929e-015 1.88845e-015
rhumerus -31.5931 -2.64292 -87.8922
rradius 36.8351
rwrist -1.85027
rhand -21.005 -8.99961
rfingers 7.12502
rthumb 5.36954 -38.9116
lclavicle 6.65929e-015 1.88845e-015
lhumerus -34.3107 3.35466 84.1051
lradius 37.1328
lwrist 23.803
lhand -20.3415 15.2062
lfingers 7.12502
lthumb 6.01012 45.1009
rfemur -37.3203 -2.20882 18.9542
rtibia 31.6703
rfoot -4.256 -7.60733
rtoes 8.45517
lfemur -32.8332 8.64709 -18.3802
ltibia 23.3601
lfoot 12.1824 -3.98624
ltoes -28.3348
257
root 50.0335 17.4996 -5.08991 140.491 -88.5763 -117.669
lowerback 14.61 -1.1031 3.56768
upperback 4.12579 -1.12484 -0.127007
thorax -3.88552 -0.644934 -1.94614
lowerneck 4.42386 0.536053 2.55137
upperneck -18.2109 0.664775 -0.0521148
head -6.23504 -0.00253162 -0.469301
rclavicle 9.93923e-016 2.38542e-014
rhumerus -31.577 -2.73097 -87.8294
rradius 36.7549
rwrist -1.78852
rhand -21.0051 -8.97361
rfingers 7.12502
rthumb 5.36939 -38.8856
lclavicle 9.93923e-016 2.38542e-014
lhumerus -34.2823 3.37988 84.086
lradius 37.1632
lwrist 23.8281
lhand -20.3823 15.2373
lfingers 7.12502
lthumb 5.97075 45.1331
rfemur -37.2303 -2.20357 18.8757
rtibia 31.6642
rfoot -4.09327 -7.64757
rtoes 8.5008
lfemur -32.7565 8.6699 -18.4363
ltibia 23.4321
lfoot 12.1327 -4.2291
ltoes -28.6828
258
root 50.0188 17.5031 -5.06857 142.119 -88.5182 -119.347
lowerback 14.6571 -1.09617 3.61455
upperback 4.11841 -1.1068 -0.116047
thorax -3.91809 -0.637062 -1.96362
lowerneck 4.40336 0.555013 2.5789
upperneck -18.2513 0.681389 -0.109848
head -6.24363 0.00666107 -0.493266
rclavicle 6.65929e-015 -1.48095e-014
rhumerus -31.5596 -2.81248 -87.7673
rradius 36.6887
rwrist -1.7324
rhand -21.0037 -8.95721
rfingers 7.12502
rthumb 5.37076 -38.8691
lclavicle 6.65929e-015 -1.48095e-014
lhumerus -34.256 3.3954 84.0701
lradius 37.2066
lwrist 23.8655
lhand -20.4137 15.2496
lfingers 7.12502
lthumb 5.94042 45.1463
rfemur -37.1477 -2.17218 18.7922
rtibia 31.6539
rfoot -3.92587 -7.70979
rtoes 8.55116
lfemur -32.7077 8.69089 -18.4989
ltibia 23.5368
lfoot 12.0659 -4.48281
ltoes -29.0729
259
root 50.0051 17.507 -5.0467 143.812 -88.4525 -121.086
lowerback 14.7179 -1.08806 3.65506
upperback 4.11596 -1.08791 -0.102592
thorax -3.95264 -0.6289 -1.97491
lowerneck 4.37663 0.575023 2.6005
upperneck -18.2956 0.699131 -0.162383
head -6.25236 0.0161844 -0.514647
rclavicle 8.94531e-016 4.27387e-015
rhumerus -31.527 -2.88317 -87.7045
rradius 36.6294
rwrist -1.68399
rhand -21.0003 -8.94018
rfingers 7.12502
rthumb 5.37401 -38.852
lclavicle 8.94531e-016 4.27387e-015
lhumerus -34.2275 3.40918 84.0596
lradius 37.2633
lwrist 23.9122
lhand -20.4328 15.244
lfingers 7.12502
lthumb 5.92201 45.1412
rfemur -37.0742 -2.11124 18.6996
rtibia 31.6417
rfoot -3.75484 -7.79045
rtoes 8.59071
lfemur -32.6848 8.70484 -18.5718
ltibia 23.6729
lfoot 11.9749 -4.72351
ltoes -29.4676
260
root 49.9922 17.5111 -5.02431 145.349 -88.3875 -122.67
lowerback 14.7952 -1.08225 3.68959
upperback 4.11975 -1.0726 -0.0862303
thorax -3.98952 -0.622645 -1.97897
lowerneck 4.34385 0.598559 2.61301
upperneck -18.3426 0.720975 -0.210811
head -6.2609 0.0278305 -0.533463
rclavicle -1.03368e-014 -1.36167e-014
rhumerus -31.4825 -2.94232 -87.6399
rradius 36.5824
rwrist -1.64495
rhand -20.995 -8.93213
rfingers 7.12502
rthumb 5.37919 -38.8439
lclavicle -1.03368e-014 -1.36167e-014
lhumerus -34.1947 3.41849 84.056
lradius 37.331
lwrist 23.9656
lhand -20.4461 15.2383
lfingers 7.12502
lthumb 5.90914 45.1359
rfemur -37.0067 -2.02535 18.5958
rtibia 31.6319
rfoot -3.59105 -7.88953
rtoes 8.61247
lfemur -32.6815 8.69591 -18.6551
ltibia 23.8348
lfoot 11.8576 -4.93943
ltoes -29.8509
261
root 49.9801 17.5153 -5.00144 146.966 -88.3205 -124.335
lowerback 14.8889 -1.0771 3.71261
upperback 4.13599 -1.06012 -0.0691731
thorax -4.02207 -0.617829 -1.97519
lowerneck 4.2951 0.628627 2.62486
upperneck -18.4013 0.750174 -0.260301
head -6.27022 0.0426051 -0.552935
rclavicle 2.11706e-014 2.5842e-014
rhumerus -31.4085 -2.99366 -87.5771
rradius 36.5393
rwrist -1.61185
rhand -20.9875 -8.92303
rfingers 7.12502
rthumb 5.38643 -38.8346
lclavicle 2.11706e-014 2.5842e-014
lhumerus -34.1504 3.42535 84.056
lradius 37.4105
lwrist 24.0241
lhand -20.4444 15.1965
lfingers 7.12502
lthumb 5.91075 45.094
rfemur -36.9464 -1.91371 18.4798
rtibia 31.6313
rfoot -3.4324 -8.00221
rtoes 8.58601
lfemur -32.6864 8.65621 -18.7466
ltibia 24.0141
lfoot 11.7131 -5.10727
ltoes -30.2003
262
root 49.969 17.5193 -4.9781 148.66 -88.25 -126.082
lowerback 15.0038 -1.07297 3.72305
upperback 4.16137 -1.05071 -0.0512122
thorax -4.05639 -0.614671 -1.96259
lowerneck 4.23715 0.665186 2.63967
upperneck -18.4672 0.786807 -0.315512
head -6.28005 0.0608742 -0.575177
rclavicle 9.54166e-015 1.71949e-014
rhumerus -31.3224 -3.02784 -87.516
rradius 36.5131
rwrist -1.58965
rhand -20.98 -8.91384
rfingers 7.12502
rthumb 5.39368 -38.8252
lclavicle 9.54166e-015 1.71949e-014
lhumerus -34.1023 3.42934 84.0599
lradius 37.5003
lwrist 24.086
lhand -20.4319 15.1427
lfingers 7.12502
lthumb 5.92286 45.0399
rfemur -36.8942 -1.77179 18.3517
rtibia 31.6474
rfoot -3.29126 -8.13047
rtoes 8.5099
lfemur -32.6912 8.57602 -18.84
ltibia 24.2029
lfoot 11.5464 -5.20521
ltoes -30.4957
